<?xml version="1.0" encoding="utf-8"?>
<!-- Generator: Adobe Illustrator 27.5.0, SVG Export Plug-In . SVG Version: 6.00 Build 0)  -->
<svg version="1.1" xmlns="http://www.w3.org/2000/svg" xmlns:xlink="http://www.w3.org/1999/xlink" x="0px" y="0px"
	 viewBox="0 0 500 500" style="enable-background:new 0 0 500 500;" xml:space="preserve">
<g id="BACKGROUND">
	<rect style="fill:#FFFFFF;" width="500" height="500"/>
</g>
<g id="OBJECTS">
	<g>
		<g>
			<path style="fill:#C4E1F3;" d="M90.366,344.589c73.266,77.912,201.178,66.619,252.971,50.699
				c136.672-42.016,149.817-257.638,23.262-263.205c-39.145-1.722-59.701,43.003-157.662-20.681
				c-80.766-52.505-155.256,22.151-163.273,82.746C38.7,246.77,52.122,303.921,90.366,344.589z"/>
			<path style="fill:#FFFFFF;" d="M174.966,196.723c-0.973-9.543-9.031-16.989-18.832-16.989c-2.652,0-5.176,0.551-7.471,1.537
				c-3.629-7.787-11.523-13.186-20.682-13.186c-0.389,0-0.777,0.01-1.162,0.029c-3.153-6.069-9.485-10.223-16.797-10.223
				c-9.701,0-17.684,7.301-18.787,16.707c-1.596-0.436-3.264-0.688-4.996-0.688c-7.795,0-14.482,4.713-17.387,11.441
				c-1.396-0.485-2.891-0.763-4.457-0.763c-7.014,0-12.781,5.314-13.51,12.135H174.966z"/>
			<path style="fill:#FFFFFF;" d="M399.966,213.723c-0.973-9.543-9.031-16.989-18.832-16.989c-2.652,0-5.176,0.551-7.471,1.537
				c-3.629-7.787-11.523-13.186-20.682-13.186c-0.389,0-0.777,0.01-1.162,0.029c-3.153-6.069-9.485-10.223-16.797-10.223
				c-9.701,0-17.684,7.301-18.787,16.707c-1.596-0.436-3.264-0.688-4.996-0.688c-7.795,0-14.482,4.713-17.387,11.441
				c-1.396-0.485-2.891-0.763-4.457-0.763c-7.014,0-12.781,5.314-13.51,12.135H399.966z"/>
			<path style="fill:#DFF1FF;" d="M274.771,143.753c-0.996-11.021-9.256-19.622-19.295-19.622c-2.719,0-5.303,0.636-7.654,1.774
				c-3.719-8.993-11.807-15.228-21.191-15.228c-0.396,0-0.795,0.011-1.189,0.033c-3.231-7.009-9.719-11.807-17.211-11.807
				c-9.939,0-18.119,8.433-19.248,19.295c-1.635-0.504-3.346-0.795-5.121-0.795c-7.985,0-14.838,5.443-17.813,13.214
				c-1.432-0.561-2.963-0.881-4.566-0.881c-7.188,0-13.098,6.137-13.842,14.016H274.771z"/>
			<g>
				<rect x="288.517" y="281.494" style="fill:#DFF1FF;" width="84.285" height="117.986"/>
				<g>
					
						<rect x="310.399" y="115.368" transform="matrix(-1 -1.224647e-16 1.224647e-16 -1 670.0391 403.0746)" style="fill:#DFF1FF;" width="49.24" height="172.338"/>
					
						<rect x="315.688" y="105.735" transform="matrix(-1 -1.224647e-16 1.224647e-16 -1 669.0956 221.1029)" style="fill:#DFF1FF;" width="37.719" height="9.633"/>
					
						<rect x="323.386" y="93.208" transform="matrix(-1 -1.224647e-16 1.224647e-16 -1 669.1562 202.7781)" style="fill:#DFF1FF;" width="22.385" height="16.362"/>
					
						<rect x="350.921" y="125.737" transform="matrix(-1 -1.224647e-16 1.224647e-16 -1 704.1678 359.4232)" style="fill:#C4E1F3;" width="2.326" height="107.949"/>
					
						<rect x="344.157" y="132.501" transform="matrix(-1 -1.224647e-16 1.224647e-16 -1 690.6406 372.952)" style="fill:#C4E1F3;" width="2.326" height="107.949"/>
					
						<rect x="337.392" y="139.266" transform="matrix(-1 -1.224647e-16 1.224647e-16 -1 677.1093 386.4813)" style="fill:#C4E1F3;" width="2.326" height="107.949"/>
					
						<rect x="330.628" y="146.032" transform="matrix(-1 -1.224647e-16 1.224647e-16 -1 663.582 400.0116)" style="fill:#C4E1F3;" width="2.326" height="107.948"/>
				</g>
				<polygon style="fill:#DFF1FF;" points="288.489,287.201 199.958,320.429 199.958,399.48 288.489,399.48 				"/>
				<g>
					<rect x="74.198" y="167.628" style="fill:#DFF1FF;" width="66.244" height="231.852"/>
					<rect x="80.847" y="154.668" style="fill:#DFF1FF;" width="33.625" height="12.96"/>
					<polygon style="fill:#DFF1FF;" points="104.079,120.134 86.573,129.62 86.573,154.668 104.079,154.668 					"/>
					<rect x="80.847" y="179.627" style="fill:#C8E2F9;" width="50.857" height="4.016"/>
					<rect x="80.847" y="190.334" style="fill:#C8E2F9;" width="50.857" height="4.015"/>
					<rect x="80.847" y="201.041" style="fill:#C8E2F9;" width="50.857" height="4.015"/>
					<rect x="80.847" y="211.748" style="fill:#C8E2F9;" width="50.857" height="4.015"/>
					<rect x="80.847" y="222.455" style="fill:#C8E2F9;" width="50.857" height="4.015"/>
					<rect x="80.847" y="233.161" style="fill:#C8E2F9;" width="50.857" height="4.015"/>
					<rect x="80.847" y="243.869" style="fill:#C8E2F9;" width="50.857" height="4.014"/>
					<rect x="80.847" y="254.574" style="fill:#C8E2F9;" width="50.857" height="4.016"/>
					<rect x="80.847" y="265.082" style="fill:#C8E2F9;" width="50.857" height="4.015"/>
					<rect x="80.847" y="275.789" style="fill:#C8E2F9;" width="50.857" height="4.015"/>
					<rect x="80.847" y="286.495" style="fill:#C8E2F9;" width="50.857" height="4.015"/>
					<rect x="80.847" y="297.202" style="fill:#C8E2F9;" width="50.857" height="4.015"/>
					<rect x="80.847" y="307.908" style="fill:#C8E2F9;" width="50.857" height="4.016"/>
				</g>
				<rect x="140.442" y="256.582" style="fill:#DFF1FF;" width="59.516" height="142.898"/>
				<g>
					<g>
						<rect x="147.317" y="267.96" style="fill:#C8E2F9;" width="6.603" height="10.996"/>
						<rect x="166.845" y="267.96" style="fill:#C8E2F9;" width="6.605" height="10.996"/>
						<rect x="176.61" y="267.96" style="fill:#C8E2F9;" width="6.603" height="10.996"/>
					</g>
					<g>
						<g>
							<rect x="147.317" y="286.925" style="fill:#C8E2F9;" width="6.603" height="10.996"/>
							<rect x="157.083" y="286.925" style="fill:#C8E2F9;" width="6.603" height="10.996"/>
							<rect x="186.374" y="286.925" style="fill:#C8E2F9;" width="6.605" height="10.996"/>
						</g>
					</g>
					<g>
						<g>
							<rect x="157.083" y="305.89" style="fill:#C8E2F9;" width="6.603" height="10.996"/>
							<rect x="186.374" y="305.89" style="fill:#C8E2F9;" width="6.605" height="10.996"/>
						</g>
					</g>
					<g>
						<rect x="147.317" y="324.855" style="fill:#C8E2F9;" width="6.603" height="10.994"/>
						<rect x="157.083" y="324.855" style="fill:#C8E2F9;" width="6.603" height="10.994"/>
						<rect x="166.845" y="324.855" style="fill:#C8E2F9;" width="6.605" height="10.994"/>
						<rect x="186.374" y="324.855" style="fill:#C8E2F9;" width="6.605" height="10.994"/>
					</g>
				</g>
				<g>
					<g>
						<rect x="255.444" y="340.967" style="fill:#C8E2F9;" width="10.652" height="10.996"/>
						<rect x="241.444" y="358.3" style="fill:#C8E2F9;" width="10.652" height="10.996"/>
						<rect x="240.581" y="320.371" style="fill:#C8E2F9;" width="10.654" height="10.996"/>
						<rect x="256.333" y="320.371" style="fill:#C8E2F9;" width="10.652" height="10.996"/>
					</g>
					<g>
						<g>
							<rect x="209.079" y="339.335" style="fill:#C8E2F9;" width="10.652" height="10.996"/>
							<rect x="224.831" y="339.335" style="fill:#C8E2F9;" width="10.652" height="10.996"/>
							<rect x="272.085" y="339.335" style="fill:#C8E2F9;" width="10.654" height="10.996"/>
						</g>
					</g>
					<g>
						<g>
							<rect x="224.831" y="358.3" style="fill:#C8E2F9;" width="10.652" height="10.996"/>
							<rect x="272.085" y="358.3" style="fill:#C8E2F9;" width="10.654" height="10.996"/>
						</g>
					</g>
					<g>
						<rect x="209.079" y="377.265" style="fill:#C8E2F9;" width="10.652" height="10.994"/>
						<rect x="224.831" y="377.265" style="fill:#C8E2F9;" width="10.652" height="10.994"/>
						<rect x="240.581" y="377.265" style="fill:#C8E2F9;" width="10.654" height="10.994"/>
						<rect x="272.085" y="377.265" style="fill:#C8E2F9;" width="10.654" height="10.994"/>
					</g>
				</g>
				<rect x="367.167" y="256.582" style="fill:#DFF1FF;" width="59.516" height="142.898"/>
				<rect x="378.079" y="232.692" style="fill:#DFF1FF;" width="37.604" height="30.788"/>
				<rect x="387.276" y="217.723" style="fill:#DFF1FF;" width="19.209" height="15.727"/>
				<rect x="392.773" y="202.66" style="fill:#DFF1FF;" width="8.217" height="18.353"/>
				<g>
					<g>
						<rect x="374.04" y="324.853" style="fill:#C4E1F3;" width="6.607" height="10.996"/>
						<rect x="393.571" y="324.853" style="fill:#C4E1F3;" width="6.604" height="10.996"/>
						<rect x="403.333" y="324.853" style="fill:#C4E1F3;" width="6.605" height="10.996"/>
					</g>
					<g>
						<rect x="374.04" y="305.888" style="fill:#C4E1F3;" width="6.607" height="10.996"/>
						<rect x="383.806" y="305.888" style="fill:#C4E1F3;" width="6.606" height="10.996"/>
						<rect x="413.099" y="305.888" style="fill:#C4E1F3;" width="6.606" height="10.996"/>
					</g>
					<g>
						<rect x="383.806" y="286.923" style="fill:#C4E1F3;" width="6.606" height="10.996"/>
						<rect x="413.099" y="286.923" style="fill:#C4E1F3;" width="6.606" height="10.996"/>
					</g>
					<g>
						<rect x="374.04" y="267.96" style="fill:#C4E1F3;" width="6.607" height="10.994"/>
						<rect x="383.806" y="267.96" style="fill:#DFF1FF;" width="6.606" height="10.994"/>
						<rect x="393.571" y="267.96" style="fill:#C4E1F3;" width="6.604" height="10.994"/>
						<rect x="413.099" y="267.96" style="fill:#C4E1F3;" width="6.606" height="10.994"/>
					</g>
				</g>
				<g>
					<g>
						<rect x="297.624" y="289.597" style="fill:#C4E1F3;" width="6.605" height="10.996"/>
						<rect x="308.333" y="289.597" style="fill:#DFF1FF;" width="6.605" height="10.996"/>
						<rect x="319.038" y="289.597" style="fill:#DFF1FF;" width="6.605" height="10.996"/>
						<rect x="340.452" y="289.597" style="fill:#DFF1FF;" width="6.605" height="10.996"/>
						<rect x="351.159" y="289.597" style="fill:#DFF1FF;" width="6.606" height="10.996"/>
						<rect x="361.866" y="289.597" style="fill:#DEDFE0;" width="6.605" height="10.996"/>
					</g>
					<g>
						<rect x="308.333" y="306.402" style="fill:#DFF1FF;" width="6.605" height="10.996"/>
						<rect x="329.745" y="306.402" style="fill:#DFF1FF;" width="6.605" height="10.996"/>
						<rect x="340.452" y="306.402" style="fill:#C4E1F3;" width="6.605" height="10.996"/>
						<rect x="351.159" y="306.402" style="fill:#DFF1FF;" width="6.606" height="10.996"/>
						<rect x="361.866" y="306.402" style="fill:#DFF1FF;" width="6.605" height="10.996"/>
					</g>
					<g>
						<rect x="297.624" y="323.208" style="fill:#DFF1FF;" width="6.605" height="10.994"/>
						<rect x="308.333" y="323.208" style="fill:#DFF1FF;" width="6.605" height="10.994"/>
						<rect x="340.452" y="323.208" style="fill:#DEDFE0;" width="6.605" height="10.994"/>
						<rect x="351.159" y="323.208" style="fill:#C4E1F3;" width="6.606" height="10.994"/>
					</g>
					<g>
						<rect x="297.624" y="340.011" style="fill:#DFF1FF;" width="6.605" height="10.996"/>
						<rect x="319.038" y="340.011" style="fill:#DFF1FF;" width="6.605" height="10.996"/>
						<rect x="329.745" y="340.011" style="fill:#DEDFE0;" width="6.605" height="10.996"/>
						<rect x="340.452" y="340.011" style="fill:#DEDFE0;" width="6.605" height="10.996"/>
						<rect x="351.159" y="340.011" style="fill:#C4E1F3;" width="6.606" height="10.996"/>
						<rect x="361.866" y="340.011" style="fill:#C4E1F3;" width="6.605" height="10.996"/>
					</g>
				</g>
			</g>
			<g>
				<path style="fill:#1D6468;" d="M126.786,373.5L126.786,373.5c-5.963,15.491-24.611,27.065-41.656,25.845l0,0
					C91.097,383.851,109.745,372.28,126.786,373.5z"/>
				<path style="fill:#1D6468;" d="M39.079,374.822L39.079,374.822c17.891-4.949,40.928,5.205,51.453,22.684l0,0
					C72.642,402.454,49.604,392.298,39.079,374.822z"/>
				<path style="fill:#257C86;" d="M117.062,332.293L117.062,332.293c-1.188,11.424-4.434,22.648-8.732,33.411
					c-4.303,10.758-9.715,21.18-16.791,30.429l0,0c-1.08-2.386-1.934-5.051-2.564-7.922c-0.586-2.863-0.727-5.9-0.762-9.078
					c0.037-3.165,0.531-6.397,1.108-9.687c0.707-3.254,1.762-6.493,2.916-9.693c1.373-3.116,2.846-6.203,4.586-9.073
					c1.867-2.811,3.752-5.536,5.928-7.905c2.242-2.337,4.461-4.505,6.893-6.254C112.108,334.798,114.597,333.369,117.062,332.293z"
					/>
				<path style="fill:#257C86;" d="M42.479,343.768L42.479,343.768c2.758,0,5.67,0.299,8.678,0.869
					c0.76,0.127,1.5,0.316,2.221,0.549c0.733,0.222,1.469,0.458,2.207,0.711c1.479,0.511,2.969,1.082,4.461,1.715l1.121,0.486
					l1.067,0.574c0.715,0.39,1.424,0.796,2.133,1.213c1.418,0.838,2.83,1.73,4.225,2.671c2.705,1.973,5.217,4.277,7.662,6.639
					c2.238,2.555,4.416,5.18,6.258,7.976c0.871,1.439,1.691,2.891,2.459,4.35c0.383,0.729,0.754,1.459,1.109,2.188l0.519,1.098
					l0.432,1.143c0.561,1.521,1.059,3.036,1.496,4.537c0.217,0.751,0.42,1.496,0.603,2.238c0.197,0.735,0.348,1.48,0.44,2.248
					c0.424,3.029,0.58,5.954,0.443,8.708l0,0c-9.43-6.176-18.078-14.184-26.166-22.67C55.765,362.516,48.187,353.486,42.479,343.768
					z"/>
				<path style="fill:#1D6468;" d="M72.216,313.083L72.216,313.083c16.289,21.132,24.604,59.331,18.57,85.32l0,0
					C74.499,377.273,66.185,339.073,72.216,313.083z"/>
			</g>
			
				<rect x="64.81" y="396.624" transform="matrix(-1 -1.224647e-16 1.224647e-16 -1 500.8828 802.2625)" style="fill:#191B1C;" width="371.264" height="9.014"/>
			<g>
				<path style="fill:#558EFA;" d="M401.249,171.199c0,5.087-4.125,9.211-9.211,9.211c-5.088,0-9.211-4.124-9.211-9.211
					c0-5.087,4.123-9.21,9.211-9.21C397.124,161.988,401.249,166.112,401.249,171.199z"/>
				<path style="fill:#558EFA;" d="M386.517,159.39c0,1.406-1.141,2.545-2.545,2.545c-1.406,0-2.545-1.139-2.545-2.545
					c0-1.405,1.139-2.545,2.545-2.545C385.376,156.845,386.517,157.985,386.517,159.39z"/>
				<path style="fill:#558EFA;" d="M405.517,163.056c0,1.406-1.141,2.545-2.545,2.545c-1.406,0-2.545-1.139-2.545-2.545
					c0-1.405,1.139-2.545,2.545-2.545C404.376,160.512,405.517,161.651,405.517,163.056z"/>
				<path style="fill:#558EFA;" d="M407.517,173.723c0,1.406-1.141,2.545-2.545,2.545c-1.406,0-2.545-1.139-2.545-2.545
					c0-1.405,1.139-2.544,2.545-2.544C406.376,171.178,407.517,172.318,407.517,173.723z"/>
				<path style="fill:#558EFA;" d="M390.517,183.723c0,1.406-1.141,2.545-2.545,2.545c-1.406,0-2.545-1.139-2.545-2.545
					c0-1.405,1.139-2.544,2.545-2.544C389.376,181.178,390.517,182.318,390.517,183.723z"/>
				<path style="fill:#558EFA;" d="M382.517,178.39c0,1.406-1.141,2.545-2.545,2.545c-1.406,0-2.545-1.139-2.545-2.545
					c0-1.405,1.139-2.545,2.545-2.545C381.376,175.845,382.517,176.985,382.517,178.39z"/>
				<path style="fill:#558EFA;" d="M405.296,186.056c0,2.021-1.639,3.659-3.658,3.659c-2.021,0-3.658-1.638-3.658-3.659
					c0-2.02,1.637-3.658,3.658-3.658C403.657,182.398,405.296,184.036,405.296,186.056z"/>
				<path style="fill:#558EFA;" d="M398.63,156.389c0,2.021-1.639,3.659-3.658,3.659c-2.021,0-3.658-1.638-3.658-3.659
					c0-2.02,1.637-3.658,3.658-3.658C396.991,152.731,398.63,154.37,398.63,156.389z"/>
				<path style="fill:#558EFA;" d="M381.296,166.389c0,2.021-1.639,3.659-3.658,3.659c-2.021,0-3.658-1.638-3.658-3.659
					c0-2.02,1.637-3.658,3.658-3.658C379.657,162.731,381.296,164.37,381.296,166.389z"/>
				
					<rect x="376.818" y="169.89" transform="matrix(0.8301 -0.5577 0.5577 0.8301 -28.7755 247.3481)" style="fill:#558EFA;" width="29.306" height="2"/>
				
					<rect x="391.471" y="155.877" transform="matrix(0.824 -0.5666 0.5666 0.824 -28.4133 252.6395)" style="fill:#558EFA;" width="2" height="32.36"/>
				
					<rect x="377.448" y="169.641" transform="matrix(0.2687 -0.9632 0.9632 0.2687 121.8619 501.7833)" style="fill:#558EFA;" width="27.853" height="1.999"/>
				
					<rect x="389.898" y="156.545" transform="matrix(0.2684 -0.9633 0.9633 0.2684 121.7805 501.2861)" style="fill:#558EFA;" width="2" height="27.854"/>
			</g>
			<g>
				<path style="fill:#558EFA;" d="M99.505,292.753c-3.949-0.449-6.785-4.016-6.336-7.965c0.449-3.949,4.016-6.785,7.965-6.336
					c3.949,0.45,6.787,4.017,6.336,7.967C107.021,290.368,103.454,293.204,99.505,292.753z"/>
				<path style="fill:#558EFA;" d="M109.975,282.362c-1.092-0.124-1.875-1.11-1.75-2.2c0.125-1.092,1.109-1.875,2.201-1.75
					c1.09,0.123,1.873,1.108,1.75,2.2C112.052,281.703,111.065,282.486,109.975,282.362z"/>
				<path style="fill:#558EFA;" d="M105.448,296.788c-1.092-0.124-1.875-1.11-1.75-2.2c0.125-1.092,1.109-1.876,2.201-1.752
					c1.09,0.125,1.873,1.11,1.75,2.202C107.524,296.128,106.538,296.911,105.448,296.788z"/>
				<path style="fill:#558EFA;" d="M96.991,297.396c-1.092-0.124-1.875-1.109-1.752-2.2c0.125-1.091,1.111-1.874,2.201-1.751
					c1.092,0.125,1.875,1.111,1.75,2.201C99.067,296.737,98.081,297.521,96.991,297.396z"/>
				<path style="fill:#558EFA;" d="M90.731,283.314c-1.092-0.125-1.875-1.11-1.75-2.201c0.123-1.09,1.109-1.874,2.201-1.75
					c1.09,0.125,1.873,1.11,1.75,2.201C92.808,282.654,91.823,283.438,90.731,283.314z"/>
				<path style="fill:#558EFA;" d="M95.579,277.576c-1.092-0.124-1.875-1.109-1.75-2.201c0.125-1.091,1.109-1.875,2.201-1.75
					c1.09,0.124,1.875,1.109,1.75,2.2C97.655,276.915,96.671,277.701,95.579,277.576z"/>
				<path style="fill:#558EFA;" d="M87.612,294.582c-1.569-0.18-2.696-1.596-2.516-3.164c0.178-1.568,1.594-2.695,3.164-2.517
					c1.566,0.179,2.693,1.596,2.516,3.164C90.597,293.632,89.181,294.759,87.612,294.582z"/>
				<path style="fill:#558EFA;" d="M111.233,292.031c-1.568-0.178-2.695-1.596-2.518-3.163c0.18-1.569,1.596-2.695,3.166-2.517
					c1.566,0.18,2.693,1.596,2.516,3.164C114.218,291.083,112.802,292.21,111.233,292.031z"/>
				<path style="fill:#558EFA;" d="M105.005,277.69c-1.57-0.179-2.697-1.596-2.517-3.164c0.179-1.569,1.596-2.694,3.164-2.517
					c1.568,0.18,2.695,1.596,2.515,3.164C107.989,276.742,106.571,277.869,105.005,277.69z"/>
				
					<rect x="99.827" y="273.741" transform="matrix(0.8881 -0.4597 0.4597 0.8881 -119.8318 78.1602)" style="fill:#558EFA;" width="1.564" height="22.899"/>
				
					<rect x="86.973" y="285.082" transform="matrix(0.8829 -0.4696 0.4696 0.8829 -122.5818 80.2677)" style="fill:#558EFA;" width="25.284" height="1.563"/>
				
					<rect x="100.03" y="274.256" transform="matrix(0.3763 -0.9265 0.9265 0.3763 -201.3031 271.2289)" style="fill:#558EFA;" width="1.562" height="21.765"/>
				
					<rect x="90.103" y="284.002" transform="matrix(0.3757 -0.9268 0.9268 0.3757 -200.8765 271.3857)" style="fill:#558EFA;" width="21.764" height="1.563"/>
			</g>
			<g>
				<path style="fill:#558EFA;" d="M69.604,193.233c2.879-0.708,5.785,1.052,6.492,3.929c0.707,2.878-1.053,5.785-3.93,6.492
					c-2.879,0.707-5.785-1.052-6.492-3.931C64.968,196.847,66.728,193.941,69.604,193.233z"/>
				<path style="fill:#558EFA;" d="M64.972,203.209c0.797-0.195,1.6,0.291,1.795,1.086c0.195,0.795-0.291,1.598-1.086,1.793
					c-0.795,0.195-1.598-0.29-1.793-1.085C63.692,204.208,64.179,203.405,64.972,203.209z"/>
				<path style="fill:#558EFA;" d="M64.405,191.951c0.795-0.195,1.598,0.291,1.793,1.086c0.195,0.795-0.291,1.598-1.086,1.794
					c-0.795,0.195-1.598-0.29-1.793-1.086C63.124,192.95,63.61,192.146,64.405,191.951z"/>
				<path style="fill:#558EFA;" d="M70.161,189.336c0.795-0.195,1.598,0.292,1.793,1.086c0.195,0.795-0.291,1.598-1.086,1.793
					c-0.795,0.195-1.598-0.291-1.793-1.085C68.88,190.335,69.366,189.532,70.161,189.336z"/>
				<path style="fill:#558EFA;" d="M78.183,197.563c0.795-0.195,1.598,0.292,1.793,1.086c0.195,0.796-0.291,1.598-1.086,1.793
					c-0.795,0.195-1.598-0.29-1.793-1.085C76.901,198.562,77.388,197.758,78.183,197.563z"/>
				<path style="fill:#558EFA;" d="M76.276,202.831c0.797-0.196,1.599,0.291,1.795,1.085c0.195,0.796-0.291,1.599-1.086,1.795
					c-0.795,0.195-1.598-0.291-1.793-1.087C74.997,203.829,75.483,203.026,76.276,202.831z"/>
				<path style="fill:#558EFA;" d="M77.446,188.878c1.145-0.281,2.299,0.418,2.58,1.561c0.279,1.143-0.418,2.297-1.563,2.578
					c-1.143,0.281-2.297-0.418-2.578-1.561C75.606,190.313,76.304,189.159,77.446,188.878z"/>
				<path style="fill:#558EFA;" d="M61.591,196.774c1.143-0.281,2.297,0.419,2.578,1.561c0.281,1.144-0.418,2.298-1.56,2.579
					c-1.143,0.281-2.297-0.418-2.578-1.561C59.749,198.21,60.448,197.055,61.591,196.774z"/>
				<path style="fill:#558EFA;" d="M69.659,205.19c1.143-0.281,2.297,0.417,2.578,1.561c0.281,1.143-0.418,2.297-1.563,2.578
					c-1.143,0.281-2.297-0.418-2.576-1.561C67.817,206.625,68.517,205.471,69.659,205.19z"/>
				
					<rect x="70.208" y="190.272" transform="matrix(0.6727 -0.7399 0.7399 0.6727 -123.9287 117.4421)" style="fill:#558EFA;" width="1.165" height="17.072"/>
				<polygon style="fill:#558EFA;" points="78.013,191.428 65.478,205.508 64.608,204.732 77.144,190.652 				"/>
				
					<rect x="70.079" y="190.784" transform="matrix(0.0301 -0.9995 0.9995 0.0301 -130.2737 263.5344)" style="fill:#558EFA;" width="1.165" height="16.225"/>
				
					<rect x="62.519" y="198.607" transform="matrix(0.0307 -0.9995 0.9995 0.0307 -130.6304 263.6755)" style="fill:#558EFA;" width="16.227" height="1.165"/>
			</g>
			<g>
				<path style="fill:#558EFA;" d="M168.18,138.889c4.641-1.141,9.326,1.697,10.467,6.335c1.139,4.641-1.697,9.327-6.336,10.468
					c-4.641,1.14-9.328-1.697-10.467-6.338C160.701,144.715,163.539,140.029,168.18,138.889z"/>
				<path style="fill:#558EFA;" d="M160.709,154.974c1.283-0.315,2.578,0.469,2.893,1.751c0.316,1.283-0.469,2.576-1.75,2.891
					c-1.281,0.315-2.576-0.468-2.891-1.751C158.645,156.584,159.43,155.289,160.709,154.974z"/>
				<path style="fill:#558EFA;" d="M159.795,136.821c1.281-0.315,2.576,0.469,2.893,1.751c0.314,1.282-0.469,2.576-1.752,2.892
					c-1.281,0.315-2.576-0.468-2.893-1.751C157.729,138.431,158.514,137.136,159.795,136.821z"/>
				<path style="fill:#558EFA;" d="M169.076,132.605c1.283-0.315,2.576,0.47,2.893,1.751c0.314,1.282-0.471,2.577-1.752,2.892
					c-1.281,0.315-2.576-0.469-2.891-1.751C167.012,134.216,167.795,132.921,169.076,132.605z"/>
				<path style="fill:#558EFA;" d="M182.01,145.87c1.281-0.315,2.576,0.47,2.891,1.751c0.316,1.283-0.467,2.577-1.75,2.892
					c-1.281,0.315-2.576-0.468-2.893-1.751C179.943,147.481,180.729,146.185,182.01,145.87z"/>
				<path style="fill:#558EFA;" d="M178.938,154.363c1.283-0.316,2.578,0.469,2.893,1.75c0.314,1.283-0.469,2.579-1.752,2.893
					c-1.279,0.315-2.576-0.469-2.891-1.752C176.873,155.973,177.656,154.678,178.938,154.363z"/>
				<path style="fill:#558EFA;" d="M180.824,131.867c1.844-0.454,3.705,0.673,4.158,2.516c0.451,1.842-0.674,3.704-2.518,4.157
					c-1.842,0.453-3.703-0.674-4.158-2.517C177.855,134.181,178.98,132.319,180.824,131.867z"/>
				<path style="fill:#558EFA;" d="M155.258,144.598c1.842-0.453,3.703,0.675,4.158,2.516c0.453,1.844-0.674,3.705-2.52,4.159
					c-1.842,0.453-3.703-0.674-4.156-2.518C152.289,146.913,153.414,145.051,155.258,144.598z"/>
				<path style="fill:#558EFA;" d="M168.266,158.169c1.844-0.454,3.703,0.673,4.158,2.516c0.453,1.842-0.674,3.704-2.518,4.156
					c-1.844,0.453-3.705-0.674-4.156-2.517C165.297,160.482,166.424,158.621,168.266,158.169z"/>
				
					<rect x="169.151" y="134.113" transform="matrix(0.673 -0.7396 0.7396 0.673 -53.758 174.1507)" style="fill:#558EFA;" width="1.878" height="27.528"/>
				
					<rect x="155.732" y="145.764" transform="matrix(0.6649 -0.7469 0.7469 0.6649 -52.3005 176.8228)" style="fill:#558EFA;" width="30.396" height="1.879"/>
				
					<rect x="168.944" y="134.94" transform="matrix(0.0301 -0.9995 0.9995 0.0301 16.8102 313.3659)" style="fill:#558EFA;" width="1.878" height="26.162"/>
				
					<rect x="156.755" y="147.553" transform="matrix(0.0306 -0.9995 0.9995 0.0306 16.2167 313.7052)" style="fill:#558EFA;" width="26.164" height="1.878"/>
			</g>
			<g>
				<path style="fill:#558EFA;" d="M345.854,249.011c-1.93,0.8-4.143-0.116-4.943-2.045c-0.801-1.931,0.115-4.143,2.045-4.944
					c1.93-0.8,4.143,0.115,4.943,2.045C348.7,245.996,347.786,248.209,345.854,249.011z"/>
				<path style="fill:#558EFA;" d="M348.017,241.563c-0.533,0.221-1.145-0.032-1.365-0.566c-0.223-0.533,0.031-1.144,0.564-1.364
					c0.533-0.222,1.145,0.031,1.365,0.564C348.804,240.73,348.55,241.343,348.017,241.563z"/>
				<path style="fill:#558EFA;" d="M349.616,249.348c-0.533,0.222-1.145-0.032-1.367-0.565c-0.221-0.534,0.033-1.145,0.566-1.366
					c0.533-0.221,1.143,0.031,1.365,0.565C350.401,248.515,350.149,249.126,349.616,249.348z"/>
				<path style="fill:#558EFA;" d="M345.886,251.785c-0.535,0.222-1.146-0.032-1.367-0.565c-0.221-0.532,0.031-1.144,0.564-1.365
					c0.533-0.221,1.145,0.031,1.365,0.564C346.671,250.952,346.417,251.564,345.886,251.785z"/>
				<path style="fill:#558EFA;" d="M339.415,246.91c-0.533,0.221-1.145-0.032-1.365-0.565c-0.223-0.534,0.031-1.144,0.564-1.366
					c0.531-0.221,1.145,0.031,1.367,0.564C340.202,246.077,339.948,246.688,339.415,246.91z"/>
				<path style="fill:#558EFA;" d="M340.179,243.036c-0.533,0.221-1.145-0.032-1.365-0.566c-0.221-0.532,0.031-1.144,0.564-1.366
					c0.533-0.221,1.145,0.032,1.365,0.566C340.966,242.203,340.712,242.815,340.179,243.036z"/>
				<path style="fill:#558EFA;" d="M340.856,252.883c-0.768,0.317-1.647-0.047-1.965-0.813c-0.318-0.766,0.045-1.644,0.813-1.963
					c0.767-0.317,1.646,0.046,1.963,0.814C341.985,251.686,341.622,252.565,340.856,252.883z"/>
				<path style="fill:#558EFA;" d="M351.061,245.686c-0.768,0.317-1.647-0.047-1.965-0.813c-0.316-0.766,0.047-1.646,0.813-1.964
					c0.768-0.318,1.647,0.046,1.965,0.813C352.19,244.489,351.827,245.368,351.061,245.686z"/>
				<path style="fill:#558EFA;" d="M344.54,240.683c-0.768,0.318-1.646-0.045-1.965-0.811c-0.316-0.766,0.047-1.646,0.813-1.963
					c0.768-0.318,1.646,0.046,1.963,0.812C345.669,239.486,345.306,240.365,344.54,240.683z"/>
				<polygon style="fill:#558EFA;" points="339.194,242.264 339.647,241.58 349.673,248.24 349.22,248.925 				"/>
				
					<rect x="337.503" y="245.404" transform="matrix(0.5441 -0.839 0.839 0.5441 -49.3383 400.8348)" style="fill:#558EFA;" width="13.291" height="0.822"/>
				
					<rect x="338.794" y="244.765" transform="matrix(0.9926 -0.1211 0.1211 0.9926 -27.1556 43.5254)" style="fill:#558EFA;" width="11.44" height="0.822"/>
				
					<rect x="344.092" y="239.249" transform="matrix(0.9926 -0.1212 0.1212 0.9926 -27.1508 43.5598)" style="fill:#558EFA;" width="0.821" height="11.44"/>
			</g>
			<g>
				<path style="fill:#558EFA;" d="M150.58,238.924c1.24,1.681,0.885,4.05-0.795,5.29c-1.682,1.242-4.049,0.885-5.291-0.796
					c-1.24-1.68-0.885-4.049,0.797-5.29C146.971,236.887,149.338,237.243,150.58,238.924z"/>
				<path style="fill:#558EFA;" d="M142.832,238.616c0.342,0.465,0.244,1.12-0.221,1.462c-0.465,0.343-1.117,0.244-1.459-0.22
					c-0.346-0.464-0.246-1.12,0.217-1.462C141.834,238.053,142.49,238.152,142.832,238.616z"/>
				<path style="fill:#558EFA;" d="M150.004,235.193c0.344,0.463,0.244,1.118-0.221,1.462c-0.465,0.342-1.119,0.244-1.461-0.221
					c-0.342-0.464-0.244-1.118,0.219-1.462C149.006,234.63,149.66,234.728,150.004,235.193z"/>
				<path style="fill:#558EFA;" d="M153.266,238.228c0.344,0.465,0.244,1.12-0.219,1.462c-0.465,0.343-1.119,0.245-1.463-0.219
					c-0.342-0.465-0.242-1.119,0.221-1.461C152.27,237.666,152.924,237.765,153.266,238.228z"/>
				<path style="fill:#558EFA;" d="M150.09,245.68c0.344,0.464,0.244,1.12-0.221,1.462c-0.465,0.344-1.117,0.244-1.461-0.221
					c-0.342-0.463-0.244-1.118,0.219-1.461C149.092,245.116,149.746,245.216,150.09,245.68z"/>
				<path style="fill:#558EFA;" d="M146.147,245.87c0.342,0.465,0.244,1.118-0.221,1.462c-0.465,0.343-1.119,0.243-1.463-0.22
					c-0.342-0.465-0.244-1.119,0.223-1.462C145.149,245.308,145.805,245.405,146.147,245.87z"/>
				<path style="fill:#558EFA;" d="M155.541,242.845c0.494,0.667,0.352,1.608-0.314,2.101c-0.668,0.494-1.607,0.352-2.102-0.316
					c-0.492-0.668-0.352-1.608,0.316-2.101C154.108,242.036,155.049,242.177,155.541,242.845z"/>
				<path style="fill:#558EFA;" d="M146.102,234.67c0.492,0.668,0.352,1.608-0.316,2.102c-0.666,0.492-1.607,0.351-2.102-0.317
					c-0.492-0.667-0.352-1.609,0.316-2.101C144.668,233.861,145.61,234.003,146.102,234.67z"/>
				<path style="fill:#558EFA;" d="M142.815,242.203c0.492,0.667,0.352,1.608-0.316,2.102c-0.668,0.492-1.607,0.351-2.102-0.317
					c-0.492-0.667-0.35-1.608,0.316-2.101C141.381,241.394,142.32,241.536,142.815,242.203z"/>
				
					<rect x="141.257" y="240.797" transform="matrix(0.3365 -0.9417 0.9417 0.3365 -129.4242 298.7276)" style="fill:#558EFA;" width="12.035" height="0.821"/>
				<polygon style="fill:#558EFA;" points="154.037,243.905 141.473,239.569 141.742,238.793 154.307,243.13 				"/>
				
					<rect x="146.771" y="235.429" transform="matrix(0.9335 -0.3586 0.3586 0.9335 -76.6921 68.8247)" style="fill:#558EFA;" width="0.822" height="11.439"/>
				
					<rect x="141.263" y="240.798" transform="matrix(0.9343 -0.3564 0.3564 0.9343 -76.3093 68.2171)" style="fill:#558EFA;" width="11.441" height="0.821"/>
			</g>
			<g>
				<path style="fill:#558EFA;" d="M435.005,236.038c-1.93,0.801-4.142-0.115-4.943-2.045s0.115-4.143,2.045-4.943
					c1.93-0.8,4.143,0.114,4.943,2.045C437.851,233.024,436.937,235.237,435.005,236.038z"/>
				<path style="fill:#558EFA;" d="M437.167,228.59c-0.533,0.221-1.145-0.031-1.365-0.566c-0.223-0.533,0.031-1.143,0.564-1.364
					c0.533-0.222,1.145,0.031,1.365,0.563C437.954,227.758,437.7,228.37,437.167,228.59z"/>
				<path style="fill:#558EFA;" d="M438.767,236.375c-0.533,0.221-1.145-0.032-1.367-0.565c-0.221-0.534,0.033-1.145,0.566-1.366
					s1.143,0.031,1.365,0.565C439.552,235.542,439.3,236.154,438.767,236.375z"/>
				<path style="fill:#558EFA;" d="M435.036,238.813c-0.535,0.221-1.147-0.033-1.367-0.566c-0.221-0.531,0.031-1.144,0.564-1.365
					c0.533-0.221,1.145,0.032,1.365,0.564C435.821,237.979,435.567,238.592,435.036,238.813z"/>
				<path style="fill:#558EFA;" d="M428.566,233.938c-0.533,0.221-1.145-0.033-1.365-0.566c-0.223-0.533,0.031-1.144,0.564-1.365
					c0.531-0.221,1.145,0.031,1.367,0.564C429.353,233.104,429.099,233.715,428.566,233.938z"/>
				<path style="fill:#558EFA;" d="M429.329,230.063c-0.533,0.221-1.145-0.031-1.365-0.565c-0.221-0.532,0.031-1.145,0.564-1.366
					c0.533-0.221,1.145,0.032,1.365,0.566C430.116,229.23,429.862,229.842,429.329,230.063z"/>
				<path style="fill:#558EFA;" d="M430.007,239.911c-0.768,0.318-1.647-0.046-1.965-0.812c-0.318-0.767,0.045-1.645,0.813-1.964
					c0.768-0.317,1.646,0.045,1.963,0.813C431.136,238.713,430.773,239.592,430.007,239.911z"/>
				<path style="fill:#558EFA;" d="M440.212,232.713c-0.768,0.317-1.646-0.047-1.965-0.813c-0.316-0.766,0.047-1.645,0.813-1.964
					c0.768-0.317,1.646,0.046,1.965,0.813C441.341,231.516,440.978,232.395,440.212,232.713z"/>
				<path style="fill:#558EFA;" d="M433.691,227.71c-0.768,0.318-1.647-0.045-1.965-0.812c-0.316-0.766,0.047-1.646,0.813-1.963
					c0.768-0.318,1.647,0.046,1.963,0.812C434.819,226.514,434.456,227.393,433.691,227.71z"/>
				<polygon style="fill:#558EFA;" points="428.345,229.291 428.798,228.608 438.823,235.268 438.37,235.952 				"/>
				
					<rect x="426.653" y="232.432" transform="matrix(0.544 -0.8391 0.8391 0.544 2.2019 469.7371)" style="fill:#558EFA;" width="13.291" height="0.822"/>
				
					<rect x="427.944" y="231.792" transform="matrix(0.9926 -0.1211 0.1211 0.9926 -24.9284 54.2262)" style="fill:#558EFA;" width="11.44" height="0.822"/>
				
					<rect x="433.242" y="226.277" transform="matrix(0.9926 -0.1212 0.1212 0.9926 -24.9225 54.2723)" style="fill:#558EFA;" width="0.822" height="11.441"/>
			</g>
			<g>
				<path style="fill:#558EFA;" d="M402.339,306.038c-1.93,0.801-4.143-0.115-4.943-2.045c-0.801-1.93,0.115-4.143,2.045-4.943
					c1.93-0.801,4.143,0.113,4.943,2.045C405.185,303.024,404.271,305.237,402.339,306.038z"/>
				<path style="fill:#558EFA;" d="M404.501,298.59c-0.533,0.221-1.145-0.031-1.365-0.566c-0.223-0.533,0.031-1.143,0.564-1.363
					c0.533-0.223,1.145,0.031,1.365,0.563C405.288,297.757,405.034,298.37,404.501,298.59z"/>
				<path style="fill:#558EFA;" d="M406.101,306.375c-0.533,0.221-1.145-0.033-1.367-0.566c-0.221-0.533,0.033-1.145,0.566-1.365
					c0.533-0.221,1.142,0.031,1.365,0.564C406.886,305.541,406.634,306.153,406.101,306.375z"/>
				<path style="fill:#558EFA;" d="M402.37,308.813c-0.535,0.221-1.146-0.033-1.367-0.566c-0.221-0.531,0.031-1.145,0.564-1.365
					c0.533-0.221,1.145,0.031,1.365,0.564C403.155,307.979,402.901,308.592,402.37,308.813z"/>
				<path style="fill:#558EFA;" d="M395.9,303.938c-0.533,0.221-1.145-0.033-1.365-0.566c-0.223-0.533,0.031-1.145,0.565-1.365
					c0.531-0.221,1.145,0.031,1.367,0.564C396.687,303.104,396.433,303.715,395.9,303.938z"/>
				<path style="fill:#558EFA;" d="M396.663,300.063c-0.533,0.221-1.145-0.031-1.365-0.566c-0.221-0.531,0.031-1.145,0.565-1.365
					c0.533-0.221,1.145,0.031,1.365,0.566C397.45,299.229,397.196,299.842,396.663,300.063z"/>
				<path style="fill:#558EFA;" d="M397.341,309.911c-0.768,0.318-1.646-0.047-1.965-0.813c-0.318-0.766,0.045-1.645,0.813-1.963
					c0.768-0.318,1.647,0.045,1.963,0.813C398.47,308.713,398.107,309.592,397.341,309.911z"/>
				<path style="fill:#558EFA;" d="M407.546,302.713c-0.768,0.316-1.646-0.047-1.965-0.813c-0.316-0.766,0.047-1.645,0.813-1.965
					c0.768-0.316,1.647,0.047,1.965,0.814C408.675,301.516,408.312,302.395,407.546,302.713z"/>
				<path style="fill:#558EFA;" d="M401.025,297.709c-0.768,0.318-1.646-0.045-1.965-0.811c-0.316-0.767,0.047-1.646,0.813-1.964
					c0.768-0.317,1.646,0.046,1.963,0.811C402.153,296.513,401.79,297.392,401.025,297.709z"/>
				<polygon style="fill:#558EFA;" points="395.679,299.291 396.132,298.608 406.157,305.268 405.704,305.952 				"/>
				
					<rect x="393.987" y="302.431" transform="matrix(0.544 -0.8391 0.8391 0.544 -71.4299 474.2382)" style="fill:#558EFA;" width="13.292" height="0.822"/>
				
					<rect x="395.278" y="301.792" transform="matrix(0.9926 -0.1211 0.1211 0.9926 -33.6459 50.7855)" style="fill:#558EFA;" width="11.44" height="0.822"/>
				
					<rect x="400.576" y="296.276" transform="matrix(0.9926 -0.1212 0.1212 0.9926 -33.6451 50.8244)" style="fill:#558EFA;" width="0.821" height="11.442"/>
			</g>
			<g>
				<path style="fill:#257C86;" d="M381.208,386.41L381.208,386.41c9.334,10.753,27.756,14.641,41.146,8.68l0,0
					C413.019,384.333,394.597,380.449,381.208,386.41z"/>
				<path style="fill:#257C86;" d="M460.921,377.044L460.921,377.044c-15.346-4.246-35.107,4.465-44.137,19.457l0,0
					C432.132,400.747,451.892,392.036,460.921,377.044z"/>
				<path style="fill:#1D6468;" d="M387.31,353.642L387.31,353.642c2.598,8.33,6.813,15.999,11.801,23.055
					c4.992,7.055,10.818,13.58,17.809,18.805l0,0c0.518-2.07,0.816-4.293,0.906-6.617c0.053-2.307-0.273-4.637-0.705-7.044
					c-0.484-2.38-1.35-4.696-2.283-7.038c-1.033-2.281-2.344-4.465-3.73-6.594c-1.543-2.014-3.166-3.977-4.975-5.711
					c-1.895-1.66-3.793-3.248-5.877-4.496c-2.125-1.208-4.213-2.294-6.406-3.011C391.63,354.302,389.435,353.843,387.31,353.642z"/>
				<path style="fill:#1D6468;" d="M458.003,350.406L458.003,350.406c-2.365,0-4.863,0.257-7.443,0.746
					c-0.652,0.108-1.287,0.271-1.906,0.471c-0.627,0.189-1.26,0.393-1.893,0.61c-1.268,0.437-2.547,0.928-3.826,1.471l-0.961,0.416
					l-0.916,0.493c-0.611,0.334-1.221,0.683-1.828,1.041c-1.219,0.718-2.428,1.484-3.625,2.29c-2.32,1.693-4.475,3.67-6.572,5.695
					c-1.92,2.191-3.789,4.442-5.367,6.841c-0.748,1.234-1.451,2.48-2.109,3.732c-0.33,0.625-0.647,1.251-0.953,1.877l-0.445,0.94
					l-0.371,0.98c-0.479,1.305-0.908,2.605-1.281,3.893c-0.185,0.643-0.359,1.283-0.517,1.92c-0.17,0.63-0.299,1.27-0.377,1.928
					c-0.363,2.6-0.498,5.108-0.381,7.47l0,0c8.088-5.297,15.508-12.166,22.445-19.445
					C446.608,366.489,453.107,358.742,458.003,350.406z"/>
				<path style="fill:#257C86;" d="M432.495,324.084L432.495,324.084c-13.973,18.127-21.105,50.895-15.93,73.188l0,0
					C430.538,379.146,437.671,346.378,432.495,324.084z"/>
			</g>
		</g>
		<g>
			<g>
				<path style="fill:#558EFA;" d="M200.811,208.223h-23c-0.553,0-1-0.447-1-1c0-0.553,0.447-1,1-1h23c0.553,0,1,0.447,1,1
					C201.811,207.775,201.363,208.223,200.811,208.223z"/>
				<path style="fill:#558EFA;" d="M200.811,229.223h-23c-0.553,0-1-0.447-1-1c0-0.553,0.447-1,1-1h23c0.553,0,1,0.447,1,1
					C201.811,228.775,201.363,229.223,200.811,229.223z"/>
				<path style="fill:#558EFA;" d="M184.811,217.223h-23c-0.553,0-1-0.447-1-1c0-0.553,0.447-1,1-1h23c0.553,0,1,0.447,1,1
					C185.811,216.775,185.363,217.223,184.811,217.223z"/>
				<path style="fill:#558EFA;" d="M201.811,217.223h-10c-0.553,0-1-0.447-1-1c0-0.553,0.447-1,1-1h10c0.553,0,1,0.447,1,1
					C202.811,216.775,202.363,217.223,201.811,217.223z"/>
			</g>
			<g>
				<path style="fill:#558EFA;" d="M201.223,281.472h-23c-0.553,0-1-0.447-1-1c0-0.553,0.447-1,1-1h23c0.553,0,1,0.447,1,1
					C202.223,281.025,201.775,281.472,201.223,281.472z"/>
				<path style="fill:#558EFA;" d="M201.223,302.472h-23c-0.553,0-1-0.447-1-1c0-0.553,0.447-1,1-1h23c0.553,0,1,0.447,1,1
					C202.223,302.025,201.775,302.472,201.223,302.472z"/>
				<path style="fill:#558EFA;" d="M177.727,362.548h-23c-0.553,0-1-0.447-1-1c0-0.553,0.447-1,1-1h23c0.553,0,1,0.447,1,1
					C178.727,362.101,178.28,362.548,177.727,362.548z"/>
				<path style="fill:#558EFA;" d="M185.223,290.472h-23c-0.553,0-1-0.447-1-1c0-0.553,0.447-1,1-1h23c0.553,0,1,0.447,1,1
					C186.223,290.025,185.775,290.472,185.223,290.472z"/>
				<path style="fill:#558EFA;" d="M202.223,290.472h-10c-0.553,0-1-0.447-1-1c0-0.553,0.447-1,1-1h10c0.553,0,1,0.447,1,1
					C203.223,290.025,202.775,290.472,202.223,290.472z"/>
				<path style="fill:#558EFA;" d="M204.223,326.472h-10c-0.553,0-1-0.447-1-1c0-0.553,0.447-1,1-1h10c0.553,0,1,0.447,1,1
					C205.223,326.025,204.775,326.472,204.223,326.472z"/>
				<path style="fill:#558EFA;" d="M188.214,352.847h-10c-0.553,0-1-0.447-1-1s0.447-1,1-1h10c0.553,0,1,0.447,1,1
					S188.766,352.847,188.214,352.847z"/>
			</g>
			<g>
				<g>
					<g>
						<path style="fill:#0A2544;" d="M193.708,375.116c0,0-0.014-0.447-1.063,0.288c-1.049,0.733-4.284,4.709-4.284,6.052
							c0.001,1.341,14.759,16.164,16.693,15.116c1.746-0.954-5.134-18.826-5.134-18.826L193.708,375.116z"/>
						<path style="fill:#F2C5BA;" d="M202.283,376.117l-2.348,3.358c0,0-4.021-0.069-6.227-4.359l2.349-3.36L202.283,376.117z"/>
					</g>
					<path style="fill:#3E74CA;" d="M228.42,336.607c-1.97-1.773-3.934-3.551-5.906-5.321c-1.096-0.984-2.194-1.965-3.294-2.944
						c-0.232-0.206-0.78-0.688-1.057-0.932c-1.246-1.081-2.502-2.149-3.765-3.208l-20.398,45.774c0,0,5.802,6.725,9.992,6.533
						l28.752-36.046C231.303,339.178,229.856,337.899,228.42,336.607z"/>
					<path style="fill:#2F64AF;" d="M228.42,336.607c-1.97-1.773-3.934-3.551-5.906-5.321c-1.096-0.984-2.194-1.965-3.294-2.944
						c-0.232-0.206-0.78-0.688-1.057-0.932c-1.246-1.081-2.502-2.149-3.765-3.208l-1.905,4.276c1.775,0.787,3.392,1.883,4.696,3.337
						c3.965,4.421,7.88,8.89,11.805,13.351l3.751-4.703C231.303,339.178,229.856,337.899,228.42,336.607z"/>
					<path style="fill:#2F64AF;" d="M199.307,370.168l18.919-42.704c-0.019-0.017-0.045-0.039-0.062-0.055
						c-1.246-1.081-2.502-2.149-3.765-3.208l-20.398,45.774c0,0,5.802,6.725,9.992,6.533l1.178-1.212
						C202.085,373.373,199.307,370.168,199.307,370.168z"/>
				</g>
				<path style="fill:#2F64AF;" d="M213.83,289.001c0,0-7.026,16.105,4.499,28.572c11.525,12.466,40.288-14.246,40.288-14.246
					l-8.922-17.598L213.83,289.001z"/>
				<polygon style="fill:#2F64AF;" points="215.569,301.097 214.399,324.202 230.455,341.159 232.745,340.463 246.595,302.335 				
					"/>
				<path style="fill:#3E74CA;" d="M271.984,315.974c4.13,6.475,3.959,12.519,3.361,18.448c0.188,0.155,0.293,0.25,0.293,0.25
					l0.416,46.025c-2.83,3.097-11.687,2.435-11.687,2.435l-9.601-44.711c-5.255-1.725-10.748-4.214-15.461-6.571
					c-2.446-1.226-6.939-3.583-11.338-6.441c-0.483-0.305-0.956-0.627-1.43-0.947c-0.274-0.183-0.55-0.367-0.821-0.557
					c-0.349-0.252-0.71-0.508-1.061-0.758c-0.31-0.224-0.617-0.451-0.913-0.681c-1.36-1.021-2.641-2.08-3.753-3.153
					c-0.155-0.149-0.313-0.298-0.463-0.454c-0.428-0.422,1.154-0.732,0.787-1.152c1.996-1.444-2.221,0.436-0.833-0.669
					c13.711-10.906,26.197-24.13,26.197-24.13S268.583,310.645,271.984,315.974z"/>
				<path style="fill:#2F64AF;" d="M234.172,310.366c0.301-0.127,0.65-0.274,1.095-0.461c1.23-0.52,2.461-1.039,3.692-1.555
					c0.406-0.17,0.812-0.34,1.218-0.509c0.13-0.056,0.29-0.125,0.503-0.216c2.701-1.172,5.354-2.444,8.05-3.625
					c2.29-1.003,4.597-1.921,6.921-2.77c0.065-0.065,0.134-0.127,0.199-0.193c-5.463-4.481-10.172-8.128-10.172-8.128
					s-11.233,11.631-23.52,21.922C226.107,313.212,230.186,311.895,234.172,310.366z"/>
				<path style="fill:#7EC193;" d="M244.861,272.254c-1.047-8.993,12.159-21.344,8.084-35.921
					c-1.578-5.617-11.93-16.579-15.526-19.34c-0.708-0.542-1.376-0.89-2.012-1.002c-3.398-0.612-6.928,0.045-10.312-0.459
					c-1.18-0.178-2.286-0.25-3.334-0.254h0c0,0-13.614,5.74-13.534,19.037c0.002,0.264-0.002,0.527-0.005,0.789
					c-0.122,23.869,1.717,68.609,2.347,68.589c14.071-0.303,53.757-4.832,51.208-13.782
					C261.476,288.887,245.125,274.492,244.861,272.254z"/>
				<path style="fill:#6AAA7C;" d="M249.191,253.279c0,0-8.798,16.554-7.135,23.445c1.663,6.891,2.553,12.543-0.209,14.232
					c-2.762,1.689,7.941-2.417,14.827,1.953c0.857,0.544,1.785,1.013,2.752,1.417c1.892-1.328,2.812-2.799,2.352-4.413
					c-0.301-1.026-16.652-15.42-16.917-17.659c-0.551-4.736,2.848-10.403,5.597-16.835L249.191,253.279z"/>
				<path style="fill:#6AAA7C;" d="M213.421,293.061c0,0,11.299-11.526,14.865-16.404c3.567-4.876,8.454-22.112,8.454-22.112
					s-0.831,13.23-3.116,21.403c-2.283,8.172-10.206,15.501-10.206,15.501L213.421,293.061z"/>
				<rect x="249.191" y="211.969" style="fill:#FFB104;" width="75.115" height="75.115"/>
				<path style="fill:#EA9C00;" d="M323.226,260.371c1.36-2.038,0.519-3.167-3.02-1.723c-3.538,1.444-12.08-0.445-12.08-0.445
					s5.365-4.537,4.376-5.815c-0.989-1.278-2.448-0.106-5.688,2.539c-1.356,1.107-3.369,2.04-5.256,2.756
					c0-0.057-0.004-0.111-0.008-0.167c-0.003-0.053-0.01-0.103-0.015-0.154c-0.018-0.164-0.048-0.32-0.09-0.47
					c-0.007-0.024-0.012-0.049-0.019-0.073c-0.231-0.733-0.742-1.252-1.401-1.298c-0.905-0.063-1.764,0.783-2.056,1.948
					c-19.244-9.551-38.614-9.077-40.575-9c-2.361-3.132-5.164-6.458-8.203-9.778v23.798c1.664,0.786,3.407,1.515,5.249,2.155
					c3.011,1.046,5.29,1.488,6.941,1.432c7.264,1.818,17.912,2.008,27.585,3.857c2.56,0.49,5.141,0.552,7.504,0.296
					c0.059,0.329,0.175,0.623,0.33,0.871c0.006,0.01,0.014,0.019,0.021,0.029c0.062,0.096,0.129,0.188,0.204,0.267
					c0.02,0.021,0.043,0.037,0.064,0.057c0.066,0.064,0.133,0.127,0.207,0.177c0.041,0.028,0.087,0.045,0.131,0.068
					c0.06,0.032,0.118,0.069,0.182,0.091c0.111,0.039,0.229,0.065,0.351,0.074c0.944,0.066,1.836-0.858,2.087-2.1
					c1.521,0.188,3.268,0.388,4.859,1.103c3.653,1.64,7.081,1.377,8.957,2.712c1.92,1.366,5.547,3.102,6.264,1.926
					c0.607-0.995,0.443-1.851-1.216-2.622c-2.608-1.213-6.013-3.239-6.013-3.239l2.439,1.072c2.99,1.42,6.498,1.971,7.118,0.638
					c0.62-1.333-0.777-2.447-2.545-2.423c-1.566,0.021-5.207-1.723-6.02-2.123c1.477,0.624,8.949,1.597,9.592-0.875
					c0.672-2.586-1.178-2.592-2.866-2.064c-1.688,0.527-6.292-1.206-6.292-1.206S321.865,262.408,323.226,260.371z M257.887,249.127
					c-0.059-0.079-0.115-0.155-0.173-0.234l0.21,0.178C257.924,249.07,257.902,249.105,257.887,249.127z"/>
				<polygon style="fill:#D3780B;" points="265.112,262.781 286.748,262.781 308.383,262.781 324.305,286.903 324.305,282.714 
					309.461,260.405 286.748,260.405 264.035,260.405 249.191,282.714 249.191,286.903 				"/>
				<path style="fill:#7EC193;" d="M301.955,257.96c-20.755-12.376-43.469-11.814-45.602-11.729
					c-4.98-6.608-11.892-14.077-18.953-20.532l-15.735,8.421c0,0,8.967,20.375,31.734,28.286c3.011,1.046,5.29,1.489,6.941,1.432
					c7.264,1.818,17.912,2.009,27.585,3.857C299.401,269.891,311.32,263.546,301.955,257.96z M256.884,246.831
					c0,0-0.023,0.035-0.037,0.057c-0.059-0.08-0.115-0.155-0.173-0.234L256.884,246.831z"/>
				<path style="fill:#6AAA7C;" d="M287.075,261.755c-9.675-1.848-20.321-2.039-27.585-3.857c-1.651,0.057-3.93-0.385-6.943-1.432
					c-15.687-5.452-24.821-16.818-28.985-23.362l-1.896,1.015c0,0,8.967,20.375,31.734,28.286c3.011,1.046,5.29,1.489,6.941,1.432
					c7.264,1.818,17.912,2.009,27.585,3.857c10.897,2.083,22.178-3.529,15.272-8.883
					C300.456,261.444,293.696,263.023,287.075,261.755z"/>
				<path style="fill:#F3C29E;" d="M258.438,192.721c-1.353,6.05-3.783,11.532-6.941,14.525c-0.225,0.211-0.441,0.402-0.64,0.563
					c-4.073,3.308-11.834,4.851-19.46,4.667c-7.085-0.172-14.061-1.839-17.794-4.984c-8.76-7.387-11.961-34.142-3.073-41.373
					c7.049-5.747,30.789-6.132,41.146-1.42l2.82,19.006l0.245,1.169c0,0,0,0,0.01-0.001c0.093-0.029,0.692-0.174,1.495-0.252
					c0.225-0.024,0.472-0.03,0.725-0.039c0.783-0.063,1.703-0.075,2.614,0.015c-0.012,0.169-0.031,0.338-0.044,0.508
					c0.704,0.379,1.286,0.997,1.525,2.01C261.748,190.059,259.76,191.867,258.438,192.721z"/>
				<path style="fill:#EF728D;" d="M238.016,189.329c-0.008,0.907,2.35,1.664,5.269,1.686c2.917,0.026,5.285-0.691,5.295-1.595
					c0.008-0.908-2.35-1.663-5.269-1.686C240.397,187.705,238.024,188.421,238.016,189.329"/>
				<path style="fill:#F3C29E;" d="M222.867,212.777c-0.358,2.787-1.171,5.025-1.931,6.645c8.082,6.886,16.18,2.431,16.18,2.431
					c-0.295-0.902-0.595-1.982-0.827-3.201c-0.24-1.273-0.416-2.698-0.436-4.249c-0.05-3.547,0.694-6.42,1.467-8.47
					c0.226-0.592,0.459-1.114,0.67-1.565l-16.178-2.432c0.229,0.721,0.466,1.581,0.676,2.566c0.375,1.729,0.647,3.846,0.555,6.199
					C223.015,211.377,222.956,212.068,222.867,212.777"/>
				<path style="fill:#EC999B;" d="M228.342,209.15h-5.297c0.014,0.505,0.017,1.02-0.004,1.551c-0.03,0.673-0.085,1.367-0.174,2.075
					c-0.359,2.785-1.171,5.025-1.927,6.645c2.882,2.456,5.763,3.456,8.279,3.745C227.98,218.544,227.701,213.78,228.342,209.15z"/>
				<path style="fill:#EC999B;" d="M222.49,204.503c0.375,1.733,0.299,7.05,0.206,9.403c3.631,2.819,9.716,9.384,14.421,7.948
					c-0.244-1.275-1.244-5.903-1.264-7.451c-0.056-3.542,0.692-6.42,1.471-8.467c-0.413-0.749-0.775-1.376-1.029-1.821
					c-0.276-0.464-0.437-0.733-0.437-0.733l-2.843,0.239L222.49,204.503z"/>
				<path style="fill:#EC999B;" d="M237.233,210.941c-10.204-1.748-18.694-9.167-22.762-17.675c-2.687,0.738-4.697,2.028-7.473,2.02
					c1.447,5.241,3.726,9.774,6.611,12.206c5.848,4.93,19.633,6.238,29.41,3.828C241.085,211.388,239.146,211.27,237.233,210.941"/>
				<path style="fill:#EC999B;" d="M251.68,164.7c-7.961-3.619-23.804-4.231-33.924-1.715c-1.294,2.807-2.257,5.269-2.311,6.076
					c-0.142,1.924,3.026,9.322,3.026,9.322s7.281-3.295,8.356-7.371c0,0,16.378,2.376,26.032,1.658L251.68,164.7z"/>
				<path style="fill:#0A1B2C;" d="M206.6,156.049c-13.53,7.702-2.639,48.246,4.499,46.101c12.163-3.655,2.037-4.668,1.506-16.531
					c-0.531-11.862,5.436-3.454,5.436-3.454s-0.748-11.758,1.888-14.365c2.639-2.603,0.014-4.005-0.394-4.075
					C219.123,163.655,206.6,156.049,206.6,156.049"/>
				<path style="fill:#0A1B2C;" d="M225.703,168.531l1.026-5.999c-3.42,0.833-5.995,1.79-7.119,2.599
					c-3.597,2.592-5.037,12.318-5.037,12.318l0.822,4.535c0,0,1.137,8.865,2.001,10.142c0.862,1.278,2.848,2.635,2.367,1.769
					c-0.479-0.868-0.12-13.507-0.26-16.012c-0.137-2.503,2.921-1.685,6.1-9.364C225.603,168.519,225.645,168.525,225.703,168.531"/>
				<path style="fill:#0A1B2C;" d="M254.679,168.722c5.854-1.175,10.04-6.867,8.779-12.703c-0.02-0.095-1.242-6.22-1.343-6.225
					c-15.164-0.705-28.885-8.865-49.014,6.643c0,0-4.168-2.579-8.477,0.774c-4.315,3.354-3.686,14.84-0.161,18.77l11.033-8.929
					C215.496,167.051,239.637,171.736,254.679,168.722"/>
				<path style="fill:#6C351F;" d="M240.207,177.842c-0.245,0.026-0.497-0.036-0.708-0.195c-0.442-0.332-0.532-0.958-0.199-1.4
					c0.94-1.252,3.643-3.122,7.152-1.238c0.489,0.26,0.669,0.867,0.411,1.354c-0.261,0.486-0.866,0.67-1.353,0.408
					c-2.892-1.548-4.542,0.587-4.611,0.678C240.726,177.679,240.473,177.813,240.207,177.842z"/>
				<path style="fill:#6C351F;" d="M243.28,182.25c-0.016,1.542,0.565,2.798,1.301,2.803c0.729,0.007,1.332-1.237,1.345-2.783
					c0.014-1.54-0.569-2.796-1.301-2.803C243.896,179.46,243.294,180.706,243.28,182.25"/>
				<path style="fill:#F3C29E;" d="M215.411,179.417"/>
				<path style="fill:#F3C29E;" d="M215.411,179.417c-0.586-1.45-4.897-2.032-7.547-0.311c-2.646,1.72-0.233,9.836,2.465,11.038
					c2.248,0.998,6.386-0.773,5.49,0.223"/>
				<path style="fill:#6C351F;" d="M213.136,183.733c0.427,1.658,0.206,3.152-0.492,3.331c-0.705,0.184-0.535-1.345-0.961-3.007
					c-0.433-1.658-1.289-2.822-0.589-3.002C211.792,180.873,212.711,182.074,213.136,183.733"/>
				<path style="fill:#7EC193;" d="M258.438,192.721c-1.353,6.05-3.783,11.532-6.941,14.525c-0.225,0.211-0.441,0.402-0.64,0.563
					c-4.073,3.308-8.225,5.159-15.845,4.975c-1.149-0.833-4.985-3.415-6.852-8.486c-1.378-3.741-5.815-17.168-5.594-18.181
					c0.001-0.006,4.394,2.988,5.976,3.523c14.095,4.76,19.884,0.929,27.704-5.018c0.225-0.024,0.472-0.03,0.725-0.039
					c0.783-0.063,1.703-0.075,2.614,0.015c-0.012,0.169-0.031,0.338-0.044,0.508c0.704,0.379,1.286,0.997,1.525,2.01
					C261.748,190.059,259.76,191.867,258.438,192.721z"/>
				<path style="fill:#6AAA7C;" d="M260.239,185.632c-0.567,1.153-1.545,1.959-2.304,2.45c-1.351,6.049-3.783,11.532-6.941,14.525
					c-0.223,0.211-0.441,0.403-0.64,0.563c-4.071,3.309-8.223,5.159-15.845,4.975c-1.147-0.833-4.985-3.415-6.852-8.485
					c-0.863-2.347-2.931-8.501-4.297-13.016c-0.481-0.317-0.794-0.528-0.794-0.527c-0.221,1.013,4.216,14.441,5.594,18.181
					c1.867,5.071,5.703,7.653,6.852,8.486c7.62,0.184,11.773-1.667,15.845-4.975c0.199-0.161,0.414-0.352,0.64-0.563
					c3.158-2.993,5.588-8.476,6.941-14.525c1.322-0.854,3.31-2.663,2.628-5.604C260.913,186.47,260.611,185.999,260.239,185.632z"/>
				<path style="fill:#6C351F;" d="M257.432,193.792c-0.217,0.023-0.433-0.097-0.518-0.309c-0.104-0.256,0.021-0.547,0.277-0.651
					c0.173-0.07,4.275-1.791,3.38-5.604c-0.172-0.736-0.549-1.268-1.152-1.626c-1.698-1.011-4.511-0.257-4.542-0.25
					c-0.253,0.075-0.516-0.069-0.603-0.315c-0.161-0.462-0.324-1.407-0.494-2.888c-0.031-0.275,0.165-0.522,0.44-0.554
					c0.256,0.003,0.522,0.166,0.553,0.439c0.134,1.15,0.243,1.835,0.332,2.242c0.985-0.198,3.226-0.486,4.826,0.466
					c0.836,0.498,1.378,1.257,1.614,2.257c1.092,4.652-3.927,6.739-3.978,6.76C257.521,193.776,257.477,193.787,257.432,193.792z"/>
				<g>
					<g>
						<path style="fill:#0A2544;" d="M267.732,386.822c0,0-0.399-0.202-0.258,1.071c0.139,1.272,2.072,6.019,3.25,6.664
							c1.177,0.643,21.266-5.181,21.276-7.381c0.003-1.99-18.978-4.54-18.978-4.54L267.732,386.822z"/>
						<path style="fill:#F2C5BA;" d="M274.568,381.628l0.711,4.035c0,0-2.895,2.792-7.487,1.314l-0.711-4.038L274.568,381.628z"/>
					</g>
					<path style="fill:#2F64AF;" d="M268.259,379.52c0,0,4.231,0.305,7.773-0.513l0.023,1.689
						c-2.83,3.097-11.687,2.435-11.687,2.435l-9.601-44.711c-5.255-1.725-10.748-4.214-15.461-6.571
						c-2.446-1.226-6.939-3.583-11.338-6.441c-0.483-0.305-0.956-0.627-1.43-0.947c-0.274-0.183-0.55-0.367-0.821-0.557
						c-0.349-0.252-0.71-0.508-1.061-0.758c-0.31-0.224-0.617-0.451-0.913-0.681c-1.36-1.021-2.641-2.08-3.753-3.153
						c-0.155-0.149-0.313-0.298-0.463-0.454c-0.428-0.422-0.828-0.864-1.196-1.287c1.561-0.918,3.025-1.942,4.415-3.043
						c5.289,5.75,16.105,11.517,20.45,13.694c4.714,2.357,10.211,4.857,15.471,6.574L268.259,379.52z"/>
				</g>
				<path style="fill:#FFFFFF;" d="M242.376,192.198c-0.406,0.044-0.821,0.078-1.25,0.102c-13.766,0.762-19.825-6.749-20.077-7.069
					l-6.591-6.486c-0.199-0.194-0.201-0.51-0.006-0.707c0.191-0.196,0.509-0.199,0.707-0.005l6.635,6.534
					c0.101,0.121,6.06,7.467,19.277,6.736c9.143-0.5,12.951-6.196,12.99-6.252c0.15-0.232,0.46-0.296,0.692-0.146
					c0.23,0.151,0.296,0.461,0.144,0.692C254.741,185.836,251.11,191.252,242.376,192.198z"/>
				<path style="fill:#FFB104;" d="M199.758,176.393c0,0,32.682-14.745,44.059-19.272c11.374-4.528,22.749-9.056,22.749-9.056
					s0.808-4.7-6.867-2.552c-7.68,2.15-14.336,1.553-14.336,1.553l-11.75-6.591c0,0-8.766-6.349-20.441,1.506
					c-7.783,5.239-12.569,9.446-12.569,9.446s-3.698,6.105-2.911,13.389C198.769,174.758,199.758,176.393,199.758,176.393z"/>
				<g>
					<g>
						<g>
							<path style="fill:#FCD763;" d="M264.912,145.242c-1.017-0.391-2.627-0.453-5.213,0.271c-1.215,0.34-2.397,0.605-3.539,0.821
								C258.386,146.271,261.483,146.012,264.912,145.242z"/>
						</g>
						<g>
							<path style="fill:#FCD763;" d="M204.982,164.027c-0.787-7.285,2.909-13.39,2.909-13.39s4.787-4.207,12.571-9.446
								c2.184-1.469,4.265-2.441,6.207-3.051c-3.547-0.354-8.224,0.292-13.499,3.841c-7.783,5.239-12.569,9.446-12.569,9.446
								s-3.698,6.105-2.911,13.389c1.078,9.942,2.067,11.577,2.067,11.577s2.62-1.183,6.633-2.979
								C206.012,171.744,205.508,168.88,204.982,164.027z"/>
						</g>
					</g>
				</g>
				<path style="fill:#D3780B;" d="M259.698,145.513c-7.68,2.15-14.336,1.553-14.336,1.553l-0.833-0.468
					c-2.086,4.341-4.226,8.651-6.47,12.904c2.224-0.942,4.195-1.76,5.758-2.382c11.374-4.528,22.749-9.056,22.749-9.056
					S267.374,143.365,259.698,145.513z"/>
				<path style="fill:#9FD3AE;" d="M246.284,238.408c-5.297-5.234-8.721-14.164-17.65-12.622c-0.635,0.11-0.494,1.1,0.141,0.99
					c8.424-1.455,11.745,7.333,16.724,12.254C245.953,239.478,246.744,238.861,246.284,238.408z"/>
				<path style="fill:#9FD3AE;" d="M286.33,253.303c-8.536-1.522-17.354-4.98-26.121-3.349c-0.632,0.119-0.493,1.109,0.141,0.991
					c8.659-1.612,17.418,1.846,25.855,3.349C286.841,254.409,286.963,253.414,286.33,253.303z"/>
				<g>
					<path style="fill:#7CB6FC;" d="M268.694,375.965l-0.307-3.021l0.999-0.102l0.304,3.024L268.694,375.965z M268.073,369.928
						c-0.103-0.965-0.214-1.973-0.327-3.019l0.993-0.108c0.116,1.043,0.223,2.055,0.327,3.019L268.073,369.928z M267.407,363.892
						c-0.11-0.987-0.228-1.993-0.346-3.015l0.99-0.116c0.122,1.022,0.238,2.031,0.352,3.018L267.407,363.892z M266.698,357.865
						c-0.125-1-0.246-2.004-0.374-3.01l0.991-0.126c0.128,1.007,0.254,2.015,0.375,3.016L266.698,357.865z M265.935,351.847
						c-0.135-1.008-0.272-2.012-0.409-3.004l0.988-0.138c0.139,0.993,0.276,1.998,0.413,3.01L265.935,351.847z M265.089,345.841
						c-0.149-1.022-0.305-2.024-0.46-2.995l0.988-0.158c0.155,0.977,0.31,1.982,0.463,3.005L265.089,345.841z M264.127,339.861
						c-0.183-1.046-0.369-2.043-0.554-2.977l0.979-0.195c0.189,0.941,0.376,1.944,0.56,2.999L264.127,339.861z M262.929,333.935
						c-0.284-1.163-0.56-2.13-0.82-2.868l0.94-0.335c0.275,0.769,0.563,1.77,0.85,2.969L262.929,333.935z M260.551,329.001
						c-0.656-0.404-1.547-0.918-2.612-1.517l0.493-0.872c1.073,0.609,1.975,1.127,2.641,1.535L260.551,329.001z M255.296,326.006
						l-2.654-1.472l0.484-0.877l2.655,1.473L255.296,326.006z M249.987,323.063c-0.866-0.483-1.754-0.98-2.65-1.481l0.491-0.873
						c0.894,0.502,1.781,0.998,2.647,1.479L249.987,323.063z M244.693,320.087c-0.882-0.502-1.763-1.008-2.637-1.512l0.502-0.867
						c0.869,0.504,1.749,1.009,2.63,1.51L244.693,320.087z M239.435,317.039c-0.89-0.532-1.761-1.057-2.603-1.573l0.526-0.853
						c0.835,0.515,1.701,1.037,2.588,1.565L239.435,317.039z M234.254,313.841c-0.913-0.592-1.762-1.166-2.531-1.708l0.575-0.818
						c0.759,0.536,1.599,1.1,2.502,1.684L234.254,313.841z"/>
					
						<rect x="269.047" y="378.812" transform="matrix(0.9957 -0.0925 0.0925 0.9957 -33.9535 26.5604)" style="fill:#7CB6FC;" width="1.001" height="1.495"/>
				</g>
				<g>
					<path style="fill:#F3C29E;" d="M318.87,266.691c-1.566,0.021-5.207-1.723-6.02-2.123c1.477,0.624,8.949,1.598,9.592-0.875
						c0.672-2.586-1.178-2.591-2.866-2.064c-1.688,0.528-6.292-1.206-6.292-1.206s7.541-0.253,8.902-2.29
						c1.36-2.038,0.519-3.167-3.02-1.723c-3.538,1.444-12.08-0.445-12.08-0.445s5.365-4.537,4.376-5.815
						c-0.989-1.278-2.448-0.106-5.688,2.539c-1.905,1.555-5.11,2.774-7.433,3.518l-2.063,10.766c1.701,0.71,4.88,0.438,7.588,1.654
						c3.653,1.64,7.08,1.377,8.957,2.712c1.92,1.366,5.547,3.102,6.264,1.926c0.607-0.995,0.443-1.851-1.216-2.622
						c-2.608-1.213-6.013-3.239-6.013-3.239l2.439,1.072c2.99,1.42,6.498,1.971,7.118,0.638
						C322.034,267.781,320.638,266.667,318.87,266.691z"/>
					<path style="fill:#FFB104;" d="M299.056,267.276c-0.174,1.368-1.13,2.418-2.137,2.348l0,0c-1.008-0.07-1.683-1.237-1.511-2.604
						l1.439-11.389c0.173-1.368,1.13-2.418,2.137-2.349l0,0c1.008,0.07,1.683,1.237,1.511,2.604L299.056,267.276z"/>
					<path style="fill:#FC9609;" d="M299.825,253.669c-0.003,0.057-0.001,0.113-0.007,0.171l-1.44,11.389
						c-0.173,1.368-1.129,2.418-2.135,2.347c-0.323-0.023-0.605-0.166-0.842-0.384c-0.098,1.29,0.555,2.364,1.519,2.432
						c1.007,0.071,1.964-0.98,2.137-2.348l1.439-11.389C300.614,254.957,300.332,254.131,299.825,253.669z"/>
				</g>
				<g>
					<path style="fill:#6AAA7C;" d="M254.67,195.956c-4.088,5.148-12.515,6.561-18.715,6.573c-0.644,0.001-0.531,0.995,0.107,0.994
						c6.456-0.012,15.129-1.577,19.387-6.94C255.849,196.078,255.07,195.451,254.67,195.956z"/>
					<path style="fill:#9FD3AE;" d="M243.356,194.704c-4.263,1.972-8.846,0.98-13.083-0.545c-0.604-0.217-1.015,0.695-0.408,0.913
						c4.486,1.616,9.354,2.645,13.859,0.562C244.306,195.365,243.942,194.433,243.356,194.704z"/>
				</g>
				<polygon style="fill:#D3780B;" points="308.384,236.091 286.748,236.091 265.113,236.091 249.191,211.969 249.191,216.159 
					264.035,238.467 286.748,238.467 309.461,238.467 324.305,216.159 324.305,211.969 				"/>
			</g>
			<rect x="292.834" y="216.068" style="fill:#FFFFFF;" width="22.791" height="14.657"/>
			<g>
				<rect x="294.624" y="219.155" style="fill:#0A1B2C;" width="19.21" height="1.443"/>
				<rect x="294.624" y="222.675" style="fill:#0A1B2C;" width="19.21" height="1.443"/>
				<rect x="294.624" y="226.195" style="fill:#0A1B2C;" width="19.21" height="1.443"/>
			</g>
		</g>
	</g>
</g>
</svg>
